<?xml version="1.0" encoding="UTF-8" standalone="no"?>
<!-- Created with Inkscape (http://www.inkscape.org/) -->

<svg
   width="186.88602mm"
   height="55.234417mm"
   viewBox="0 0 186.88602 55.234417"
   version="1.1"
   id="svg1"
   inkscape:version="1.4.2 (ebf0e940, 2025-05-08)"
   sodipodi:docname="mermaid-logo.svg"
   inkscape:export-filename="/Users/qr24461/mermaid-logo.svg"
   inkscape:export-xdpi="300"
   inkscape:export-ydpi="300"
   xmlns:inkscape="http://www.inkscape.org/namespaces/inkscape"
   xmlns:sodipodi="http://sodipodi.sourceforge.net/DTD/sodipodi-0.dtd"
   xmlns="http://www.w3.org/2000/svg"
   xmlns:svg="http://www.w3.org/2000/svg">
  <sodipodi:namedview
     id="namedview1"
     pagecolor="#ffffff"
     bordercolor="#000000"
     borderopacity="0.25"
     inkscape:showpageshadow="2"
     inkscape:pageopacity="0.0"
     inkscape:pagecheckerboard="0"
     inkscape:deskcolor="#d1d1d1"
     inkscape:document-units="mm"
     inkscape:zoom="1.07"
     inkscape:cx="383.17757"
     inkscape:cy="242.05607"
     inkscape:window-width="1904"
     inkscape:window-height="913"
     inkscape:window-x="1520"
     inkscape:window-y="33"
     inkscape:window-maximized="0"
     inkscape:current-layer="svg1"
     showgrid="true"
     inkscape:export-bgcolor="#ffffffff">
    <inkscape:grid
       id="grid1"
       units="mm"
       originx="-12.756431"
       originy="-32.883265"
       spacingx="0.99999998"
       spacingy="1"
       empcolor="#0099e5"
       empopacity="0.30196078"
       color="#0099e5"
       opacity="0.14901961"
       empspacing="5"
       enabled="true"
       visible="true" />
    <inkscape:page
       x="0"
       y="-1.8821087e-13"
       width="186.88602"
       height="55.234413"
       id="page2"
       margin="0"
       bleed="0" />
  </sodipodi:namedview>
  <defs
     id="defs1" />
  <g
     inkscape:label="Layer 1"
     inkscape:groupmode="layer"
     id="layer1"
     transform="translate(-12.756431,-32.883268)">
    <path
       style="font-weight:bold;font-size:48.1974px;font-family:'Tamil MN';-inkscape-font-specification:'Tamil MN, Bold';stroke-width:0.569259;stroke-linejoin:round"
       d="m 42.432662,66.996035 c 0,-0.533435 -0.0706,-1.035491 -0.211805,-1.506169 -0.125514,-0.486367 -0.305941,-0.902132 -0.54128,-1.247296 -0.235339,-0.360853 -0.509901,-0.643259 -0.823686,-0.847219 -0.313785,-0.21965 -0.651104,-0.329475 -1.011957,-0.329475 -0.42361,0 -0.862909,0.0706 -1.317897,0.211805 -0.454989,0.141203 -0.909977,0.329474 -1.364966,0.564813 -0.439299,0.235339 -0.855065,0.509901 -1.247296,0.823686 -0.392231,0.313785 -0.737395,0.64326 -1.035491,0.988424 V 83.328552 H 27.653381 V 66.996035 c 0,-0.533435 -0.0706,-1.035491 -0.211805,-1.506169 -0.141203,-0.486367 -0.337319,-0.902132 -0.588347,-1.247296 -0.235339,-0.360853 -0.509901,-0.643259 -0.823686,-0.847219 -0.313785,-0.21965 -0.635415,-0.329475 -0.964889,-0.329475 -0.392232,0 -0.815842,0.0706 -1.27083,0.211805 -0.439299,0.141203 -0.886443,0.329474 -1.341432,0.564813 -0.439299,0.235339 -0.870754,0.509901 -1.294364,0.823686 -0.407921,0.313785 -0.776618,0.64326 -1.106092,0.988424 V 83.328552 H 12.756431 V 61.418504 l 5.106853,-2.682863 h 2.188652 v 2.612261 c 1.145315,-0.784463 2.329854,-1.404188 3.553617,-1.859177 1.239451,-0.454988 2.42399,-0.682482 3.553616,-0.682482 0.627571,0 1.255141,0.0706 1.882711,0.211805 0.64326,0.141203 1.255141,0.345164 1.835643,0.611881 0.596192,0.251028 1.145316,0.564813 1.647373,0.941355 0.502056,0.360853 0.93351,0.776619 1.294363,1.247296 0.549124,-0.439299 1.153161,-0.84722 1.81211,-1.223762 0.658949,-0.376542 1.349276,-0.690327 2.070982,-0.941355 0.737395,-0.266717 1.482634,-0.470678 2.235719,-0.611881 0.768773,-0.156893 1.529702,-0.235339 2.282787,-0.235339 1.019801,0 1.984691,0.196116 2.894668,0.588347 0.925666,0.392231 1.733663,0.933511 2.42399,1.623838 0.690327,0.690327 1.239451,1.498324 1.647372,2.42399 0.407921,0.925667 0.611881,1.921935 0.611881,2.988804 v 16.89733 h -7.366106 z m 23.396974,16.873797 c -1.710129,0 -3.318277,-0.313785 -4.824446,-0.941356 -1.506169,-0.643259 -2.816222,-1.498324 -3.930159,-2.565193 -1.113937,-1.082559 -2.000381,-2.329855 -2.65933,-3.741888 -0.643259,-1.427723 -0.964889,-2.933892 -0.964889,-4.518507 0,-1.8984 0.298096,-3.655597 0.894288,-5.27159 0.596191,-1.631683 1.443411,-3.043716 2.541659,-4.2361 1.098249,-1.192383 2.408302,-2.118049 3.93016,-2.776998 1.537547,-0.674638 3.247676,-1.011957 5.130387,-1.011957 1.678751,0 3.216298,0.266717 4.612641,0.800152 1.396344,0.533435 2.588728,1.262985 3.577151,2.188651 1.004113,0.925667 1.780731,2.01607 2.329855,3.27121 0.549124,1.255141 0.823686,2.596572 0.823686,4.024295 H 60.605114 c 0.06276,1.333587 0.258876,2.604417 0.588347,3.81249 0.345163,1.208073 0.800152,2.274942 1.364965,3.200608 0.564813,0.909977 1.223762,1.639528 1.976847,2.188652 0.768773,0.533435 1.615993,0.800152 2.541659,0.800152 0.800152,0 1.584615,-0.133359 2.353389,-0.400076 0.784463,-0.282407 1.506168,-0.658949 2.165117,-1.129627 0.658949,-0.486367 1.231607,-1.043335 1.717974,-1.670906 0.486367,-0.643259 0.839376,-1.333587 1.059025,-2.070982 l 3.718354,0.588347 c -0.376542,1.302209 -0.980578,2.525971 -1.812109,3.671287 -0.815841,1.145315 -1.780731,2.149428 -2.894668,3.012337 -1.098248,0.862909 -2.298476,1.545392 -3.600685,2.047448 -1.302208,0.486367 -2.620106,0.729551 -3.953693,0.729551 z m 3.082939,-17.273873 c -0.06276,-0.706017 -0.219649,-1.349276 -0.470677,-1.929779 -0.235339,-0.596191 -0.54128,-1.106092 -0.917822,-1.529702 -0.376542,-0.42361 -0.815841,-0.74524 -1.317898,-0.96489 -0.502056,-0.235339 -1.043335,-0.353008 -1.623838,-0.353008 -0.454988,0 -0.902132,0.117669 -1.341431,0.353008 -0.439299,0.21965 -0.839375,0.54128 -1.200228,0.96489 -0.345164,0.407921 -0.64326,0.909977 -0.894288,1.506169 -0.235339,0.580502 -0.392231,1.231606 -0.470678,1.953312 z m 63.109725,0.400076 c 0,-0.533435 -0.0706,-1.035491 -0.21181,-1.506169 -0.12551,-0.486367 -0.30594,-0.902132 -0.54127,-1.247296 -0.23534,-0.360853 -0.5099,-0.643259 -0.82369,-0.847219 -0.31379,-0.21965 -0.65111,-0.329475 -1.01196,-0.329475 -0.42361,0 -0.86291,0.0706 -1.3179,0.211805 -0.45499,0.141203 -0.90997,0.329474 -1.36496,0.564813 -0.4393,0.235339 -0.85507,0.509901 -1.2473,0.823686 -0.39223,0.313785 -0.73739,0.64326 -1.03549,0.988424 v 17.673948 h -7.2249 V 66.996035 c 0,-0.533435 -0.0706,-1.035491 -0.21181,-1.506169 -0.1412,-0.486367 -0.33731,-0.902132 -0.58834,-1.247296 -0.23534,-0.360853 -0.5099,-0.643259 -0.82369,-0.847219 -0.31379,-0.21965 -0.63542,-0.329475 -0.96489,-0.329475 -0.39223,0 -0.81584,0.0706 -1.27083,0.211805 -0.4393,0.141203 -0.88644,0.329474 -1.34143,0.564813 -0.4393,0.235339 -0.87075,0.509901 -1.29436,0.823686 -0.40792,0.313785 -0.77662,0.64326 -1.1061,0.988424 v 17.673948 h -7.2955 V 61.418504 l 5.10685,-2.682863 h 2.18865 v 2.612261 c 1.14532,-0.784463 2.32986,-1.404188 3.55362,-1.859177 1.23945,-0.454988 2.42399,-0.682482 3.55362,-0.682482 0.62757,0 1.25514,0.0706 1.88271,0.211805 0.64326,0.141203 1.25514,0.345164 1.83564,0.611881 0.59619,0.251028 1.14532,0.564813 1.64737,0.941355 0.50206,0.360853 0.93352,0.776619 1.29437,1.247296 0.54912,-0.439299 1.15316,-0.84722 1.81211,-1.223762 0.65895,-0.376542 1.34927,-0.690327 2.07098,-0.941355 0.73739,-0.266717 1.48263,-0.470678 2.23572,-0.611881 0.76877,-0.156893 1.5297,-0.235339 2.28278,-0.235339 1.01981,0 1.9847,0.196116 2.89467,0.588347 0.92567,0.392231 1.73366,0.933511 2.42399,1.623838 0.69033,0.690327 1.23945,1.498324 1.64737,2.42399 0.40793,0.925667 0.61189,1.921935 0.61189,2.988804 v 16.89733 h -7.36611 z m 23.70367,3.906625 c -0.70601,0.298096 -1.41987,0.658949 -2.14158,1.082559 -0.72171,0.42361 -1.37281,0.902132 -1.95331,1.435567 -0.56481,0.517745 -1.03549,1.098248 -1.41203,1.741508 -0.36085,0.62757 -0.54128,1.302208 -0.54128,2.023914 0,0.800152 0.20396,1.427722 0.61188,1.882711 0.42361,0.454989 0.98842,0.682483 1.69444,0.682483 0.59619,0 1.18453,-0.172582 1.76504,-0.517746 0.5805,-0.360853 1.23945,-0.823686 1.97684,-1.388499 z m -13.36724,-5.553997 c 0.25103,-1.004113 0.69032,-1.91409 1.31789,-2.729931 0.62757,-0.831531 1.40419,-1.529703 2.32986,-2.094516 0.94135,-0.580502 2.00822,-1.027646 3.20061,-1.341431 1.20807,-0.313785 2.51028,-0.470678 3.90662,-0.470678 1.72582,0 3.2163,0.156893 4.47144,0.470678 1.25514,0.313785 2.28279,0.760929 3.08294,1.341431 0.81584,0.564813 1.41203,1.255141 1.78858,2.070982 0.39223,0.800153 0.58834,1.702285 0.58834,2.706397 v 13.790858 c 0,0.988423 0.30594,1.827799 0.91782,2.518126 0.61189,0.690327 1.4748,1.262985 2.58873,1.717973 h -8.66047 c -0.25103,0 -0.49421,-0.0706 -0.72955,-0.211805 -0.23534,-0.141203 -0.44714,-0.32163 -0.63541,-0.541279 -0.18827,-0.235339 -0.35301,-0.486367 -0.49421,-0.753084 -0.14121,-0.266718 -0.24319,-0.525591 -0.30595,-0.776619 -0.43929,0.407921 -0.85506,0.784463 -1.24729,1.129627 -0.39223,0.329474 -0.82369,0.611881 -1.29437,0.84722 -0.47067,0.235339 -0.99626,0.415765 -1.57677,0.541279 -0.5805,0.141203 -1.27867,0.211805 -2.09451,0.211805 -1.11394,0 -2.11805,-0.156893 -3.01234,-0.470678 -0.8786,-0.313785 -1.63168,-0.745239 -2.25925,-1.294363 -0.61188,-0.564813 -1.08256,-1.223762 -1.41203,-1.976847 -0.32948,-0.768773 -0.49422,-1.600304 -0.49422,-2.494592 0,-1.380655 0.38439,-2.565194 1.15316,-3.553617 0.76877,-0.988423 1.78073,-1.851332 3.03588,-2.588727 1.27083,-0.737395 2.70639,-1.380655 4.3067,-1.929779 1.6003,-0.549124 3.23198,-1.074714 4.89504,-1.57677 v -2.353389 c 0,-0.768773 -0.0784,-1.419877 -0.23533,-1.953312 -0.15689,-0.549124 -0.37654,-0.988423 -0.65895,-1.317898 -0.28241,-0.345163 -0.62757,-0.588347 -1.03549,-0.72955 -0.39223,-0.156893 -0.83153,-0.235339 -1.3179,-0.235339 -0.58051,0 -1.09825,0.109825 -1.55324,0.329474 -0.45499,0.219649 -0.84722,0.517745 -1.17669,0.894288 -0.32947,0.376542 -0.59619,0.807997 -0.80015,1.294364 -0.20397,0.486367 -0.35302,0.996267 -0.44715,1.529702 z m 23.60917,-3.930159 5.13039,-2.682863 h 2.18865 v 24.592911 h -7.31904 z m 26.40258,20.498015 c -0.89429,0.611881 -1.86702,1.090404 -2.9182,1.435567 -1.05118,0.345164 -2.08667,0.517746 -3.10647,0.517746 -1.50617,0 -2.92604,-0.337319 -4.25963,-1.011957 -1.3179,-0.674639 -2.47106,-1.576771 -3.45949,-2.706397 -0.98842,-1.145316 -1.76504,-2.455369 -2.32985,-3.930159 -0.56481,-1.49048 -0.84722,-3.043717 -0.84722,-4.65971 0,-1.615993 0.34516,-3.184919 1.03549,-4.706777 0.69033,-1.537547 1.63168,-2.902513 2.82407,-4.094896 1.20807,-1.192384 2.61226,-2.149429 4.21256,-2.871135 1.61599,-0.721705 3.34181,-1.082558 5.17746,-1.082558 0.70601,0 1.36496,0.05491 1.97684,0.164737 0.62757,0.109825 1.19239,0.258873 1.69444,0.447144 v -9.790097 l 5.08332,-2.682863 h 2.18865 v 36.383388 h -7.27197 z m 0,-14.967552 c 0,-0.768773 -0.12551,-1.47479 -0.37654,-2.118049 -0.23534,-0.64326 -0.55697,-1.192384 -0.96489,-1.647372 -0.39223,-0.470678 -0.83938,-0.831531 -1.34143,-1.082559 -0.50205,-0.251028 -1.00411,-0.376542 -1.50617,-0.376542 -0.65895,0 -1.28652,0.219649 -1.88271,0.658948 -0.59619,0.42361 -1.12178,1.019802 -1.57677,1.788576 -0.4393,0.753084 -0.79231,1.655216 -1.05902,2.706397 -0.26672,1.035491 -0.40008,2.165117 -0.40008,3.388879 0,1.333587 0.14905,2.604417 0.44714,3.81249 0.31379,1.208073 0.72955,2.274942 1.2473,3.200608 0.51775,0.909977 1.12178,1.639528 1.81211,2.188652 0.69033,0.549124 1.42772,0.823686 2.21218,0.823686 0.26672,0 0.55697,-0.03922 0.87076,-0.11767 0.31379,-0.09413 0.61973,-0.219649 0.91782,-0.376542 0.31379,-0.156893 0.60404,-0.337319 0.87075,-0.541279 0.28241,-0.219649 0.52559,-0.462833 0.72955,-0.729551 z"
       id="text1"
       aria-label="memaid"
       sodipodi:nodetypes="scccsscscccscccscccccccccccsccccsccscsssccsscccscscsscscccccsccccccccsccscscccccscccsscscccscccscccccccccccsccccsccscsssccscsccscscccccccssccssscsscsccscscccsscscscccsssscccccccccsscccscccsccccccccsccsscccsccssccccs" />
    <path
       id="path4"
       style="fill:#cb3c33;fill-opacity:1;stroke:none;stroke-width:0.1;stroke-linejoin:round;stroke-dasharray:none;stroke-opacity:1"
       d="m 169.98859,43.234054 c 0,0 -0.99991,2.847569 -5.29993,3.999755 -0.0652,7 5.29993,8.000029 5.29993,8.000029 0,0 5.36514,-1.000029 5.29994,-8.000029 -4.30002,-1.152186 -5.29994,-3.999755 -5.29994,-3.999755 z" />
    <path
       id="path5"
       style="fill:#9558b2;fill-opacity:1;stroke:none;stroke-width:0.1;stroke-linejoin:round;stroke-dasharray:none;stroke-opacity:1"
       d="m 181.93877,43.234054 c 0,0 -0.99992,2.847569 -5.29994,3.999755 -0.0652,7 5.29994,8.000029 5.29994,8.000029 0,0 5.36513,-1.000029 5.29993,-8.000029 -4.30002,-1.152186 -5.29993,-3.999755 -5.29993,-3.999755 z" />
    <g
       id="g7"
       transform="translate(30.96259,-2.1166667)"
       style="fill:#389826;fill-opacity:1;stroke:none">
      <path
         id="path6"
         style="fill:#389826;fill-opacity:1;stroke:none;stroke-width:0.1;stroke-linejoin:round;stroke-dasharray:none;stroke-opacity:1"
         d="m 144.9998,34.999931 c 0,0 -0.99992,2.848086 -5.29994,4.000272 -0.0652,7 5.29994,8.000029 5.29994,8.000029 0,0 5.36565,-1.000029 5.30045,-8.000029 -4.30002,-1.152186 -5.30045,-4.000272 -5.30045,-4.000272 z" />
    </g>
    <path
       style="fill:#4063d8;fill-opacity:1;stroke:none;stroke-width:0.1;stroke-linejoin:round;stroke-dasharray:none;stroke-opacity:1"
       d="m 79.800266,87.786952 c 3.19974,-4.999973 11.19973,-4.999973 14.32918,0.330727 1.87055,-6.330694 -3.07111,-17.940138 -3.07111,-26.33057 0,-10.999942 6.71849,-13.562948 11.718504,-13.470768 5,0 5.00001,7.321061 10,7.321051 -2.49999,-4.999975 -1,-8.850221 -3.75,-8.861941 2.75,0.0117 1.25,-3.86198 3.75,-8.861982 -4.99999,3e-6 -5,7.519532 -10,7.519532 -5.972194,0 -16.835174,3.35417 -19.835174,16.354108 -2.16266,9.371466 -5.94166,17.999888 -3.1414,25.999843 z"
       id="path9"
       sodipodi:nodetypes="ccscccccsc"
       inkscape:export-filename="mermaid-logo.pdf"
       inkscape:export-xdpi="300"
       inkscape:export-ydpi="300" />
  </g>
</svg>
